<svg xmlns="http://www.w3.org/2000/svg" viewBox="10644 13165 24 24">
  <defs>
    <style>
      .cls-1 {
        fill: #fff;
      }
    </style>
  </defs>
  <path id="Search" class="cls-1" d="M24,21.887l-4.981-4.981a10.335,10.335,0,0,0,2.113-6.34A10.5,10.5,0,0,0,10.566,0,10.5,10.5,0,0,0,0,10.566,10.5,10.5,0,0,0,10.566,21.132a10.335,10.335,0,0,0,6.34-2.113L21.887,24ZM3.019,10.566a7.474,7.474,0,0,1,7.547-7.547,7.474,7.474,0,0,1,7.547,7.547,7.474,7.474,0,0,1-7.547,7.547A7.474,7.474,0,0,1,3.019,10.566Z" transform="translate(10644 13165)"/>
</svg>
